<svg width="32" height="32" viewBox="0 0 32 32" fill="none" xmlns="http://www.w3.org/2000/svg">
<g id="gg:profile">
<g id="Group">
<path id="Vector" fill-rule="evenodd" clip-rule="evenodd" d="M21.3332 12.0001C21.3332 13.4146 20.7713 14.7711 19.7711 15.7713C18.7709 16.7715 17.4143 17.3334 15.9998 17.3334C14.5853 17.3334 13.2288 16.7715 12.2286 15.7713C11.2284 14.7711 10.6665 13.4146 10.6665 12.0001C10.6665 10.5856 11.2284 9.22904 12.2286 8.22885C13.2288 7.22865 14.5853 6.66675 15.9998 6.66675C17.4143 6.66675 18.7709 7.22865 19.7711 8.22885C20.7713 9.22904 21.3332 10.5856 21.3332 12.0001ZM18.6665 12.0001C18.6665 12.7073 18.3856 13.3856 17.8855 13.8857C17.3854 14.3858 16.7071 14.6667 15.9998 14.6667C15.2926 14.6667 14.6143 14.3858 14.1142 13.8857C13.6141 13.3856 13.3332 12.7073 13.3332 12.0001C13.3332 11.2928 13.6141 10.6146 14.1142 10.1145C14.6143 9.61437 15.2926 9.33341 15.9998 9.33341C16.7071 9.33341 17.3854 9.61437 17.8855 10.1145C18.3856 10.6146 18.6665 11.2928 18.6665 12.0001Z" fill="#374151"/>
<path id="Vector_2" fill-rule="evenodd" clip-rule="evenodd" d="M15.9999 1.33337C7.89992 1.33337 1.33325 7.90004 1.33325 16C1.33325 24.1 7.89992 30.6667 15.9999 30.6667C24.0999 30.6667 30.6666 24.1 30.6666 16C30.6666 7.90004 24.0999 1.33337 15.9999 1.33337ZM3.99992 16C3.99992 18.7867 4.95059 21.352 6.54392 23.3894C7.66289 21.9199 9.10645 20.729 10.7618 19.9098C12.4172 19.0905 14.2396 18.6651 16.0866 18.6667C17.9097 18.665 19.7091 19.0794 21.3478 19.8784C22.9865 20.6774 24.4212 21.8399 25.5426 23.2774C26.6978 21.7622 27.4757 19.9937 27.8118 18.1182C28.1479 16.2427 28.0325 14.3141 27.4752 12.492C26.918 10.67 25.9349 9.00677 24.6072 7.64009C23.2796 6.27341 21.6456 5.24252 19.8404 4.63272C18.0353 4.02292 16.1109 3.85174 14.2264 4.13334C12.3419 4.41494 10.5516 5.14123 9.00361 6.25211C7.45558 7.363 6.19433 8.82653 5.32422 10.5216C4.45412 12.2167 4.00016 14.0947 3.99992 16ZM15.9999 28C13.2452 28.0042 10.5736 27.0565 8.43725 25.3174C9.29716 24.0864 10.4417 23.0813 11.7735 22.3876C13.1053 21.694 14.585 21.3323 16.0866 21.3334C17.5695 21.3322 19.0312 21.6848 20.3505 22.3619C21.6697 23.0391 22.8084 24.0212 23.6719 25.2267C21.519 27.0223 18.8034 28.004 15.9999 28Z" fill="#374151"/>
</g>
</g>
</svg>
